<?xml version="1.0" encoding="utf-8"?>
<!-- Generator: Adobe Illustrator 24.3.0, SVG Export Plug-In . SVG Version: 6.00 Build 0)  -->
<svg version="1.1" id="Layer_1" xmlns="http://www.w3.org/2000/svg" xmlns:xlink="http://www.w3.org/1999/xlink" x="0px" y="0px"
	 viewBox="0 0 800 800" enable-background="new 0 0 800 800" xml:space="preserve">
<g>
	<path fill="#F16235" d="M480.858,541.569c2.503,10.76-2.347,20.986-5.281,31.438c-3.79,13.505-7.58,27.009-11.37,40.514
		c-2.264,8.067-4.736,15.638-5.48,23.913c-0.883,9.821,2.182,22.772-4.379,31.141c-3.087,3.938-7.806,5.438-12.944,5.964h-13.428
		v0.065c-1.067-0.033-2.125-0.065-3.126-0.065c-11.938,0-11.958,18.553,0,18.553c3.755,0,7.577,0.058,11.363-0.001h16.368
		c3.044,0,5.617,2.575,5.617,5.621v24.917c0,3.046-2.573,5.619-5.617,5.619h-104.56c-3.048,0-5.621-2.573-5.621-5.619v-24.917
		c0-0.294,0.028-0.583,0.071-0.866c0.425-2.711,2.808-4.755,5.55-4.755h20.593c1.236,0.001,2.471,0.001,3.702,0.001
		c11.938,0,11.958-18.553,0-18.553c-0.311,0-0.624,0.006-0.936,0.009v-0.009h-11.57c-6.632-0.465-12.503-2.471-16.058-9.851
		c-4.258-8.838-0.639-20.992-1.876-30.346c-0.931-7.041-3.569-14.005-5.482-20.821c-5.742-20.462-18.359-46.675-17.371-68.084
		c4.868-21.346,18.389-29.661,34.786-32.787c12.828,25.916,25.654,51.831,38.482,77.747c2.997,6.056,13.022,6.056,16.02,0
		c12.899-26.062,25.799-52.125,38.699-78.186C463.005,515.144,476.487,522.776,480.858,541.569z"/>
	<path d="M324.616,236.557c2.719,3.425,7.68,7.562,14.202,11.706c14.385,9.855,30.901,16.034,47.964,18.185
		c4.422,0.685,8.899,1.104,13.375,1.174c0.426,0.005,0.852,0.009,1.277,0.009c7.234,0,14.401-0.978,21.308-2.569
		c12.444-2.554,24.53-7.277,35.581-14.326c0.123-0.078,0.229-0.171,0.352-0.249c9.893-5.884,17.034-11.958,19.584-15.853
		c0.229-0.35,0.392-0.685,0.578-1.025c31.123-33.191,37.182-82.904,16.686-125.26c-5.2-10.745-21.204-1.348-16.021,9.364
		c15.06,31.121,12.28,67.463-6.751,94.246c-9.81-14.228-24.124-24.63-41.382-30.229c6.812-7.479,11.006-17.383,11.006-28.273
		c0-23.2-18.875-42.075-42.075-42.075c-23.2,0-42.075,18.875-42.075,42.075c0,11.091,4.345,21.163,11.382,28.687
		c-16.729,5.878-31.042,16.552-40.971,30.847c-21.773-29.628-23.825-70.665-3.523-102.12
		c26.826-41.562,80.557-51.162,122.453-27.405c10.401,5.897,19.761-10.125,9.364-16.02c-48.851-27.699-110.879-17.45-144.39,29.043
		c-29.954,41.557-25.807,100.066,9.214,137.295C322.671,234.757,323.668,235.625,324.616,236.557z M376.779,153.457
		c0-12.97,10.554-23.522,23.522-23.522c12.968,0,23.522,10.552,23.522,23.522c0,12.97-10.554,23.522-23.522,23.522
		C387.333,176.979,376.779,166.428,376.779,153.457z M400.301,195.532c26.935,0,48.322,11.146,59.634,30.785
		c-3.936,3.507-8.262,6.707-12.969,9.554c-6.452,3.609-14.403,7.252-23.11,9.798c-11.199,2.985-22.842,3.776-34.237,2.445
		c-15.389-2.345-29.736-8.656-39.241-14.317c-3.051-2.032-5.995-4.248-8.796-6.688C353.372,207.243,374.932,195.532,400.301,195.532
		z"/>
	<circle cx="472.092" cy="91.862" r="8.677"/>
	<path d="M84.541,434.191c2.725,3.434,7.705,7.586,14.254,11.743c14.377,9.839,30.881,16.008,47.931,18.155
		c4.417,0.683,8.889,1.101,13.359,1.171c0.43,0.005,0.852,0.009,1.282,0.009c7.221,0,14.376-0.975,21.274-2.563
		c12.454-2.552,24.552-7.276,35.613-14.332c0.127-0.081,0.237-0.176,0.364-0.258c9.887-5.88,17.023-11.948,19.574-15.839
		c0.233-0.356,0.4-0.698,0.589-1.045c31.112-33.191,37.166-82.896,16.673-125.246c-5.2-10.745-21.204-1.348-16.02,9.364
		c15.06,31.121,12.279,67.462-6.75,94.245c-9.812-14.228-24.127-24.629-41.385-30.228c6.812-7.479,11.005-17.383,11.005-28.272
		c0-23.2-18.875-42.075-42.075-42.075c-23.2,0-42.075,18.875-42.075,42.075c0,11.091,4.345,21.163,11.382,28.687
		c-16.729,5.878-31.043,16.553-40.969,30.846c-21.773-29.628-23.825-70.665-3.523-102.12
		c26.826-41.562,80.557-51.161,122.453-27.405c10.401,5.897,19.761-10.125,9.365-16.02c-48.85-27.699-110.879-17.45-144.391,29.043
		c-29.953,41.557-25.807,100.066,9.214,137.295C82.601,432.394,83.595,433.26,84.541,434.191z M136.709,351.097
		c0-12.97,10.554-23.522,23.522-23.522c12.968,0,23.522,10.552,23.522,23.522s-10.554,23.522-23.522,23.522
		C147.262,374.619,136.709,364.068,136.709,351.097z M160.231,393.172c26.935,0,48.327,11.151,59.638,30.783
		c-3.852,3.433-8.09,6.562-12.681,9.363c-6.873,3.853-15.497,7.751-24.893,10.347c-10.738,2.668-21.846,3.36-32.734,2.09
		c-15.388-2.343-29.735-8.651-39.242-14.312c-3.055-2.034-6.002-4.252-8.806-6.694C113.302,404.882,134.862,393.172,160.231,393.172
		z"/>
	<circle cx="232.023" cy="289.501" r="8.677"/>
	<path d="M719.571,315.352c15.06,31.121,12.28,67.462-6.75,94.245c-9.812-14.228-24.127-24.629-41.384-30.227
		c6.812-7.479,11.005-17.383,11.005-28.272c0-23.2-18.875-42.075-42.075-42.075c-23.2,0-42.075,18.875-42.075,42.075
		c0,11.091,4.345,21.163,11.382,28.687c-16.729,5.878-31.043,16.553-40.969,30.846c-21.773-29.628-23.825-70.665-3.523-102.12
		c26.826-41.562,80.556-51.161,122.453-27.405c10.401,5.897,19.761-10.125,9.364-16.02c-48.85-27.699-110.879-17.45-144.39,29.043
		c-29.954,41.557-25.808,100.066,9.214,137.295c0.914,0.972,1.909,1.838,2.855,2.769c2.724,3.433,7.703,7.583,14.249,11.739
		c14.38,9.842,30.886,16.012,47.938,18.159c4.416,0.683,8.887,1.101,13.356,1.171c0.43,0.005,0.852,0.009,1.282,0.009
		c7.221,0,14.376-0.975,21.274-2.563c12.455-2.552,24.551-7.276,35.612-14.332c0.127-0.081,0.237-0.176,0.363-0.257
		c9.887-5.88,17.024-11.949,19.576-15.84c0.233-0.356,0.4-0.698,0.589-1.046c31.111-33.191,37.165-82.896,16.672-125.245
		C730.392,295.243,714.388,304.64,719.571,315.352z M616.845,351.097c0-12.97,10.554-23.522,23.522-23.522
		c12.968,0,23.522,10.552,23.522,23.522s-10.554,23.522-23.522,23.522C627.399,374.619,616.845,364.068,616.845,351.097z
		 M640.367,393.172c26.935,0,48.327,11.151,59.638,30.783c-3.837,3.419-8.056,6.535-12.627,9.327
		c-6.934,3.889-15.656,7.827-25.148,10.431c-10.676,2.626-21.712,3.304-32.531,2.042c-15.39-2.343-29.739-8.651-39.246-14.314
		c-3.053-2.034-6.001-4.251-8.804-6.693C593.439,404.882,614.998,393.172,640.367,393.172z"/>
	<path d="M712.159,298.178c4.792,0,8.677-3.885,8.677-8.677c0-4.792-3.885-8.677-8.677-8.677s-8.677,3.885-8.677,8.677
		C703.482,294.293,707.367,298.178,712.159,298.178z"/>
	<path d="M409.576,348.902c0-21.084,0-42.167,0-63.251c0-11.938-18.553-11.958-18.553,0c0,21.084,0,42.168,0,63.251
		C391.023,360.84,409.576,360.86,409.576,348.902z"/>
	<path d="M529.068,430.48c-14.909,14.909-29.818,29.817-44.726,44.726c-8.453,8.453,4.662,21.576,13.119,13.119
		c14.909-14.909,29.817-29.817,44.726-44.726C550.64,435.145,537.525,422.023,529.068,430.48z"/>
	<path d="M257.575,443.599c14.909,14.909,29.817,29.817,44.726,44.726c8.453,8.453,21.576-4.662,13.119-13.119
		c-14.909-14.909-29.817-29.817-44.726-44.726C262.24,422.026,249.118,435.142,257.575,443.599z"/>
	<path d="M300.838,541.737c-0.1,0.485-0.116,0.94-0.148,1.401c-0.062,0.354-0.156,0.686-0.183,1.065
		c-2.047,28.631,15.932,58.935,21.519,86.802c2.939,14.657-0.742,30.986,6.223,44.967c0.981,1.97,2.094,3.681,3.294,5.224
		c-3.827,3.594-6.564,8.366-7.41,13.813l-0.005,0.029c-0.181,1.2-0.281,2.426-0.281,3.673v24.917
		c0,13.328,10.844,24.172,24.174,24.172h104.56c13.326,0,24.17-10.844,24.17-24.172v-24.917c0-6.944-2.983-13.167-7.685-17.58
		c1.397-1.809,2.662-3.876,3.755-6.268c7.219-15.807,3.097-34.389,7.77-51.04c8.483-30.228,29.471-69.985,12.922-100.467
		c-10.822-19.932-28.253-27.353-47.569-29.973c13.821-12.493,22.573-30.496,22.573-50.551c0-37.616-30.602-68.217-68.215-68.217
		c-37.618,0-68.22,30.602-68.22,68.217c0,20.206,8.881,38.333,22.887,50.836c-0.447,0.25-0.871,0.541-1.281,0.855
		C328.605,498.364,307.52,509.486,300.838,541.737z M480.858,541.569c2.503,10.76-2.347,20.986-5.281,31.438
		c-3.79,13.505-7.58,27.009-11.37,40.514c-2.264,8.067-4.736,15.638-5.48,23.913c-0.883,9.821,2.182,22.772-4.379,31.141
		c-3.087,3.938-7.806,5.438-12.944,5.964h-13.428v0.065c-1.067-0.033-2.125-0.065-3.126-0.065c-11.938,0-11.958,18.553,0,18.553
		c3.755,0,7.577,0.058,11.363-0.001h16.368c3.044,0,5.617,2.575,5.617,5.621v24.917c0,3.046-2.573,5.619-5.617,5.619h-104.56
		c-3.048,0-5.621-2.573-5.621-5.619v-24.917c0-0.294,0.028-0.583,0.071-0.866c0.425-2.711,2.808-4.755,5.55-4.755h20.593
		c1.236,0.001,2.471,0.001,3.702,0.001c11.938,0,11.958-18.553,0-18.553c-0.311,0-0.624,0.006-0.936,0.009v-0.009h-11.57
		c-6.632-0.465-12.503-2.471-16.058-9.851c-4.258-8.838-0.639-20.992-1.876-30.346c-0.931-7.041-3.569-14.005-5.482-20.821
		c-5.742-20.462-18.359-46.675-17.371-68.084c4.868-21.346,18.389-29.661,34.786-32.787c12.828,25.916,25.654,51.831,38.482,77.747
		c2.997,6.056,13.022,6.056,16.02,0c12.899-26.062,25.799-52.125,38.699-78.186C463.005,515.144,476.487,522.776,480.858,541.569z
		 M397.993,511.051c0.593,0,1.231-0.018,1.837-0.023c0.159,0.001,0.313,0.024,0.471,0.024c0.265,0,0.52-0.036,0.785-0.04
		c8.004-0.115,17.013-0.582,26.092-0.465c-8.96,18.101-17.919,36.203-26.878,54.303c-8.904-17.989-17.807-35.978-26.711-53.967
		C381.778,510.738,390.103,511.051,397.993,511.051z M350.635,442.834c0-27.386,22.281-49.664,49.667-49.664
		c27.386,0,49.662,22.279,49.662,49.664c0,26.587-21.013,48.298-47.296,49.544c-1.168,0.024-2.335,0.045-3.491,0.063
		C372.313,491.835,350.635,469.84,350.635,442.834z"/>
	<circle cx="398.896" cy="683.816" r="8.677"/>
	<g>
		<g>
			<path d="M161.368,465.269c-0.43,0-0.852-0.004-1.282-0.009c-34.941-0.546-70.072-21.821-76.785-32.764
				c-3.13-5.103-1.943-9.261-0.951-11.288l0,0c14.023-28.736,43.869-46.589,77.881-46.589c36.273,0,65.878,17.502,79.204,46.82
				c0.897,1.977,1.925,6.006-1.241,10.839C231.829,441.985,197.232,465.267,161.368,465.269z M101.288,425.105
				c8.013,7.098,33.324,21.201,59.088,21.602c25.855,0.428,51.564-15.031,59.863-22.145c-11.215-20.018-32.789-31.39-60.008-31.39
				C134.707,393.172,113.028,405.017,101.288,425.105z M99.027,429.334c-0.004,0.004-0.004,0.009-0.009,0.014v0.002
				C99.023,429.345,99.023,429.338,99.027,429.334z"/>
		</g>
	</g>
	<path fill="#58C7DE" d="M101.288,425.105c8.013,7.098,33.324,21.201,59.088,21.602c25.855,0.428,51.564-15.031,59.863-22.145
		c-11.215-20.018-32.789-31.39-60.008-31.39C134.707,393.172,113.028,405.017,101.288,425.105z"/>
	<path fill="#F16235" d="M400.301,195.532c26.935,0,48.322,11.146,59.634,30.785c-3.936,3.507-8.262,6.707-12.969,9.554
		c-6.452,3.609-14.403,7.252-23.11,9.798c-11.199,2.985-22.842,3.776-34.237,2.445c-15.389-2.345-29.736-8.656-39.241-14.317
		c-3.051-2.032-5.995-4.248-8.796-6.688C353.372,207.243,374.932,195.532,400.301,195.532z"/>
	<path fill="#58C7DE" d="M640.367,393.172c26.935,0,48.327,11.151,59.638,30.783c-3.837,3.419-8.056,6.535-12.627,9.327
		c-6.934,3.889-15.656,7.827-25.148,10.431c-10.676,2.626-21.712,3.304-32.531,2.042c-15.39-2.343-29.739-8.651-39.246-14.314
		c-3.053-2.034-6.001-4.251-8.804-6.693C593.439,404.882,614.998,393.172,640.367,393.172z"/>
</g>
</svg>
